<?xml version="1.0" encoding="utf-8"?>
<!-- Generator: Adobe Illustrator 26.0.1, SVG Export Plug-In . SVG Version: 6.00 Build 0)  -->
<svg version="1.1" id="Layer_1" xmlns="http://www.w3.org/2000/svg" xmlns:xlink="http://www.w3.org/1999/xlink" x="0px" y="0px"
	 viewBox="0 0 512 512" style="enable-background:new 0 0 512 512;" xml:space="preserve">
<style type="text/css">
	.st0{fill:#ADB5BD;}
</style>
<path class="st0" d="M480.7,180.5c-20-20-47.1-31.3-75.4-31.1l0,0H59.7l91.7-91.7c8.3-8.4,8.3-21.9-0.1-30.2
	c-8.4-8.3-21.9-8.3-30.2,0.1l0,0L15.6,133.1c-20.8,20.8-20.8,54.6,0,75.4l105.6,105.6c8.3,8.4,21.9,8.4,30.2,0
	c8.4-8.3,8.4-21.9,0-30.2l0,0l-92-91.9h345.9l0,0c35.3,0,64,28.7,64,64v149.3c0,35.3-28.7,64-64,64H106.7
	c-11.8,0-21.3,9.6-21.3,21.3s9.6,21.3,21.3,21.3h298.7c58.9-0.1,106.6-47.8,106.7-106.7V256C512.1,227.7,500.8,200.5,480.7,180.5z"
	/>
</svg>
