<?xml version="1.0" encoding="utf-8"?>
<!-- Generator: Adobe Illustrator 26.0.1, SVG Export Plug-In . SVG Version: 6.00 Build 0)  -->
<svg version="1.1" id="Capa_1" xmlns="http://www.w3.org/2000/svg" xmlns:xlink="http://www.w3.org/1999/xlink" x="0px" y="0px"
	 viewBox="0 0 512 512" style="enable-background:new 0 0 512 512;" xml:space="preserve">
<style type="text/css">
	.st0{fill:#6C757D;}
</style>
<g transform="translate(0.000000,512.000000) scale(0.100000,-0.100000)">
	<path class="st0" d="M2370,5113c-379-36-661-116-980-278c-378-193-717-497-965-865c-104-156-232-419-294-605
		c-49-150-89-321-113-490c-17-118-17-512,0-630c42-295,120-553,242-800c137-280,272-468,494-691c221-220,412-357,681-489
		c188-92,309-137,500-185c500-126,1002-102,1490,71c149,53,407,182,540,271c365,243,667,578,866,963c181,348,271,694,286,1090
		c15,426-73,832-263,1214c-124,250-263,447-458,648c-216,224-428,378-711,518c-296,146-572,225-900,255
		C2683,5119,2452,5121,2370,5113z M2744,4030c254-65,464-274,533-530c27-101,24-293-6-390c-100-324-378-531-711-531
		s-611,207-711,531c-31,98-33,290-6,390c70,258,276,463,529,530C2474,4056,2641,4057,2744,4030z M2005,2511c165-111,313-160,508-168
		c243-11,423,42,621,181c92,64,120,73,171,52c117-49,370-278,477-431c154-223,249-481,265-727c7-108-3-146-44-173
		c-29-19-339-85-538-114c-291-42-436-53-806-58c-369-5-528,1-809,33c-273,31-689,110-734,139c-40,26-50,65-43,173
		c16,245,113,511,268,732c101,144,317,342,455,415C1861,2600,1882,2595,2005,2511z"/>
	<path class="st0" d="M2410,3791c-177-56-314-216-343-400c-38-246,116-487,356-556c74-21,200-21,274,0c184,53,326,215,356,404
		c37,240-112,480-342,551C2629,3816,2488,3816,2410,3791z"/>
	<path class="st0" d="M1793,2276c-134-101-277-275-357-434c-68-135-141-398-112-407c59-21,414-76,646-102c238-26,942-26,1180,0
		c232,26,587,81,646,102c16,5-8,132-46,247c-75,226-225,436-417,590l-63,50l-48-30c-306-196-686-245-1036-135c-78,24-234,97-286,132
		c-14,10-30,21-37,24C1857,2317,1825,2300,1793,2276z"/>
</g>
</svg>
