<?xml version="1.0" encoding="utf-8"?>
<!-- Generator: Adobe Illustrator 26.0.1, SVG Export Plug-In . SVG Version: 6.00 Build 0)  -->
<svg version="1.1" xmlns="http://www.w3.org/2000/svg" xmlns:xlink="http://www.w3.org/1999/xlink" x="0px" y="0px"
	 viewBox="0 0 2459.27 819.76" style="enable-background:new 0 0 2459.27 819.76;" xml:space="preserve">
<style type="text/css">
	.st0{fill:#F9FAFB;}
</style>
<g id="Capa_1">
</g>
<g id="Capa_2">
	<g>
		<path class="st0" d="M504.23,527.54c-38.93,36.44-91.11,54.66-156.51,54.66H217.03L58.05,663.04v43.43h297.14
			c71.01,0,133.77-13.54,188.29-40.64c54.5-27.1,96.86-65.26,127.07-114.46s45.32-106.52,45.32-171.93c0-17-1.03-33.44-3.07-49.35
			l-151.55,77.07C556.21,456.55,537.2,496.68,504.23,527.54z"/>
		<path class="st0" d="M209.43,176.66h138.29c65.4,0,117.58,18.23,156.51,54.67c32.34,30.27,51.24,69.48,56.71,117.59l140.76-71.58
			c-7.45-24.85-17.83-48.13-31.15-69.83c-30.21-49.21-72.58-87.37-127.07-114.46c-54.51-27.1-117.28-40.66-188.29-40.66H58.05
			v552.27l151.38-76.98V176.66z"/>
		<polygon class="st0" points="829.87,706.47 981.24,706.47 981.24,193.58 829.87,270.56 		"/>
		<polygon class="st0" points="981.24,52.38 829.87,52.38 829.87,212.16 981.24,135.18 		"/>
		<polygon class="st0" points="1586.73,449.51 1261.55,52.38 1258.91,52.38 1136.34,114.71 1136.34,706.47 1285.85,706.47 
			1285.85,309.34 1611.96,706.47 1736.24,706.47 1736.24,52.38 1586.73,52.38 		"/>
		<path class="st0" d="M2349.68,411.21c-22.74-25.54-49.99-44.23-81.76-56.06c-31.78-11.84-72.57-23.67-122.41-35.52
			c-47.97-10.59-83.64-21.33-106.99-32.23c-23.37-10.9-35.05-27.56-35.05-49.99c0-22.42,10.11-40.48,30.37-54.2
			c20.24-13.7,51.54-20.56,93.91-20.56c60.42,0,120.86,17.14,181.29,51.4l46.71-114.94c-29.9-18.68-64.79-33.01-104.65-42.98
			c-39.87-9.96-80.67-14.95-122.4-14.95c-59.81,0-110.42,9.04-151.85,27.1c-41.43,18.08-72.42,42.52-92.97,73.35
			c-20.56,30.84-30.83,65.26-30.83,103.25c0,43.61,11.36,78.5,34.1,104.67c22.74,26.17,49.99,45.16,81.76,57
			c31.76,11.84,72.58,23.67,122.41,35.51c32.39,7.47,58.09,14.33,77.08,20.56c18.99,6.23,34.57,14.49,46.72,24.76
			c12.15,10.29,18.23,23.21,18.23,38.78c0,21.17-10.29,38.16-30.84,50.93c-20.56,12.77-52.33,19.15-95.31,19.15
			c-38.62,0-77.25-6.23-115.87-18.68s-71.94-28.96-99.98-49.54L1839.96,642c29.27,22.44,68.04,40.66,116.33,54.67
			c48.27,14,98.27,21.02,149.97,21.02c59.79,0,110.56-9.04,152.31-27.1c41.73-18.06,73.03-42.51,93.91-73.35
			s31.32-64.94,31.32-102.33C2383.79,471.32,2372.42,436.74,2349.68,411.21z"/>
	</g>
</g>
</svg>
