<?xml version="1.0" encoding="utf-8"?>
<!-- Generator: Adobe Illustrator 26.0.1, SVG Export Plug-In . SVG Version: 6.00 Build 0)  -->
<svg version="1.1" id="Capa_1" xmlns="http://www.w3.org/2000/svg" xmlns:xlink="http://www.w3.org/1999/xlink" x="0px" y="0px"
	 viewBox="0 0 2459.3 819.8" style="enable-background:new 0 0 2459.3 819.8;" xml:space="preserve">
<style type="text/css">
	.st0{fill:#F9FAFB;}
</style>
<g id="Capa_1_00000152981295100826372800000000026700269699713943_">
</g>
<g id="Capa_2_00000157310364955624533300000001550187784442754444_">
	<g>
		<path class="st0" d="M504.2,527.5c-38.9,36.4-91.1,54.7-156.5,54.7H217L58,663v43.4h297.1c71,0,133.8-13.5,188.3-40.6
			c54.5-27.1,96.9-65.3,127.1-114.5s45.3-106.5,45.3-171.9c0-17-1-33.4-3.1-49.4l-151.5,77.1C556.2,456.5,537.2,496.7,504.2,527.5z"
			/>
		<path class="st0" d="M209.4,176.7h138.3c65.4,0,117.6,18.2,156.5,54.7c32.3,30.3,51.2,69.5,56.7,117.6l140.8-71.6
			c-7.5-24.9-17.8-48.1-31.2-69.8C640.3,158.3,598,120.1,543.5,93C489,65.9,426.2,52.4,355.2,52.4H58v552.3l151.4-77L209.4,176.7
			L209.4,176.7z"/>
		<polygon class="st0" points="829.9,706.5 981.2,706.5 981.2,193.6 829.9,270.6 		"/>
		<polygon class="st0" points="981.2,52.4 829.9,52.4 829.9,212.2 981.2,135.2 		"/>
		<polygon class="st0" points="1586.7,449.5 1261.6,52.4 1258.9,52.4 1136.3,114.7 1136.3,706.5 1285.8,706.5 1285.8,309.3 
			1612,706.5 1736.2,706.5 1736.2,52.4 1586.7,52.4 		"/>
		<path class="st0" d="M2349.7,411.2c-22.7-25.5-50-44.2-81.8-56.1c-31.8-11.8-72.6-23.7-122.4-35.5c-48-10.6-83.6-21.3-107-32.2
			c-23.4-10.9-35.1-27.6-35.1-50c0-22.4,10.1-40.5,30.4-54.2c20.2-13.7,51.5-20.6,93.9-20.6c60.4,0,120.9,17.1,181.3,51.4
			l46.7-114.9c-29.9-18.7-64.8-33-104.6-43c-39.9-10-80.7-15-122.4-15c-59.8,0-110.4,9-151.8,27.1c-41.4,18.1-72.4,42.5-93,73.3
			c-20.6,30.8-30.8,65.3-30.8,103.2c0,43.6,11.4,78.5,34.1,104.7s50,45.2,81.8,57c31.8,11.8,72.6,23.7,122.4,35.5
			c32.4,7.5,58.1,14.3,77.1,20.6s34.6,14.5,46.7,24.8c12.1,10.3,18.2,23.2,18.2,38.8c0,21.2-10.3,38.2-30.8,50.9
			c-20.6,12.8-52.3,19.2-95.3,19.2c-38.6,0-77.2-6.2-115.9-18.7s-71.9-29-100-49.5L1840,642c29.3,22.4,68,40.7,116.3,54.7
			c48.3,14,98.3,21,150,21c59.8,0,110.6-9,152.3-27.1c41.7-18.1,73-42.5,93.9-73.3s31.3-64.9,31.3-102.3
			C2383.8,471.3,2372.4,436.7,2349.7,411.2z"/>
	</g>
</g>
</svg>
